<svg height="33.75pt"
    style="fill:none;fill-rule:evenodd;stroke:#000;stroke-width:.501;stroke-linejoin:bevel;stroke-miterlimit:10"
    viewBox="-125.334 -4131.66 105.75 33.75" width="105.75pt" xmlns="http://www.w3.org/2000/svg">
    <path
        d="m-120.526 4102.81c-3.1 3.13-4.808 7.38-4.808 11.97s1.708 8.84 4.808 11.97c3.129 3.16 7.414 4.91 12.067 4.91 4.676 0 8.971-1.75 12.091-4.91 3.085-3.12 4.784-7.37 4.784-11.97 0-4.59-1.699-8.84-4.784-11.97-3.12-3.16-7.415-4.9-12.091-4.9-4.653 0-8.938 1.74-12.067 4.9zm72 0c-3.1 3.13-4.808 7.38-4.808 11.97s1.708 8.84 4.808 11.97c3.129 3.16 7.414 4.91 12.067 4.91 4.676 0 8.971-1.75 12.091-4.91 3.085-3.12 4.784-7.37 4.784-11.97 0-4.59-1.699-8.84-4.784-11.97-3.12-3.16-7.415-4.9-12.091-4.9-4.653 0-8.938 1.74-12.067 4.9zm-39.308-4.15v16.5c0 9.21 6.716 16.5 15.75 16.5v-6.35c-5.23 0-9.153-4.55-9.153-10.15v-16.5zm18 0v16.5c0 9.21 6.716 16.5 15.75 16.5v-6.35c-5.23 0-9.153-4.55-9.153-10.15v-16.5zm-28.819 16.12c0 5.82-4.307 10.38-9.806 10.38-5.498 0-9.805-4.56-9.805-10.38s4.307-10.38 9.805-10.38c5.499 0 9.806 4.56 9.806 10.38zm72 0c0 5.82-4.307 10.38-9.806 10.38-5.498 0-9.805-4.56-9.805-10.38s4.307-10.38 9.805-10.38c5.499 0 9.806 4.56 9.806 10.38z"
        fill="#00002a" fill-rule="nonzero" stroke="none" transform="scale(1 -1)" />
</svg>